<mxfile host="app.diagrams.net" agent="Mozilla/5.0 (Windows NT 10.0; Win64; x64) AppleWebKit/537.36 (KHTML, like Gecko) Chrome/115.0.0.0 Safari/537.36" version="24.7.7">
  <diagram name="Trang-1" id="AhH5VrpT5btNctW_eRCJ">
    <mxGraphModel dx="1114" dy="610" grid="1" gridSize="10" guides="1" tooltips="1" connect="1" arrows="1" fold="1" page="1" pageScale="1" pageWidth="827" pageHeight="1169" math="0" shadow="0">
      <root>
        <mxCell id="0" />
        <mxCell id="1" parent="0" />
        <mxCell id="nBId-_VAAAZWxmM32bPr-1" value="VNFC_DOWN&lt;br&gt;(pod down)" style="rounded=0;whiteSpace=wrap;html=1;" parent="1" vertex="1">
          <mxGeometry x="450" y="420" width="120" height="60" as="geometry" />
        </mxCell>
        <mxCell id="nBId-_VAAAZWxmM32bPr-12" value="" style="edgeStyle=orthogonalEdgeStyle;rounded=0;orthogonalLoop=1;jettySize=auto;html=1;" parent="1" source="nBId-_VAAAZWxmM32bPr-3" target="nBId-_VAAAZWxmM32bPr-7" edge="1">
          <mxGeometry relative="1" as="geometry" />
        </mxCell>
        <mxCell id="nBId-_VAAAZWxmM32bPr-3" value="NODE_DOWN" style="rounded=0;whiteSpace=wrap;html=1;" parent="1" vertex="1">
          <mxGeometry x="35" y="140" width="120" height="60" as="geometry" />
        </mxCell>
        <mxCell id="nBId-_VAAAZWxmM32bPr-4" value="NODE_LOW&lt;br&gt;_DISK_SPACE" style="rounded=0;whiteSpace=wrap;html=1;" parent="1" vertex="1">
          <mxGeometry x="544" y="300" width="120" height="60" as="geometry" />
        </mxCell>
        <mxCell id="nBId-_VAAAZWxmM32bPr-7" value="VNFC_DOWN&lt;br&gt;(pod down)" style="rounded=0;whiteSpace=wrap;html=1;" parent="1" vertex="1">
          <mxGeometry x="35" y="260" width="120" height="60" as="geometry" />
        </mxCell>
        <mxCell id="nBId-_VAAAZWxmM32bPr-19" value="PORT_DOWN" style="rounded=0;whiteSpace=wrap;html=1;" parent="1" vertex="1">
          <mxGeometry x="823" y="550" width="120" height="60" as="geometry" />
        </mxCell>
        <mxCell id="nBId-_VAAAZWxmM32bPr-22" value="DB_ERROR" style="rounded=0;whiteSpace=wrap;html=1;" parent="1" vertex="1">
          <mxGeometry x="770" y="740" width="120" height="60" as="geometry" />
        </mxCell>
        <mxCell id="nBId-_VAAAZWxmM32bPr-24" value="NODE_LOW&lt;br&gt;_DISK_SPACE" style="rounded=0;whiteSpace=wrap;html=1;" parent="1" vertex="1">
          <mxGeometry x="770" y="640" width="120" height="60" as="geometry" />
        </mxCell>
        <mxCell id="nBId-_VAAAZWxmM32bPr-35" value="" style="edgeStyle=orthogonalEdgeStyle;rounded=0;orthogonalLoop=1;jettySize=auto;html=1;" parent="1" source="nBId-_VAAAZWxmM32bPr-34" target="nBId-_VAAAZWxmM32bPr-3" edge="1">
          <mxGeometry relative="1" as="geometry" />
        </mxCell>
        <mxCell id="nBId-_VAAAZWxmM32bPr-34" value="PORT_DOWN" style="rounded=0;whiteSpace=wrap;html=1;" parent="1" vertex="1">
          <mxGeometry x="35" y="20" width="120" height="60" as="geometry" />
        </mxCell>
        <mxCell id="nBId-_VAAAZWxmM32bPr-44" value="" style="edgeStyle=orthogonalEdgeStyle;rounded=0;orthogonalLoop=1;jettySize=auto;html=1;" parent="1" source="nBId-_VAAAZWxmM32bPr-42" target="nBId-_VAAAZWxmM32bPr-43" edge="1">
          <mxGeometry relative="1" as="geometry" />
        </mxCell>
        <mxCell id="nBId-_VAAAZWxmM32bPr-42" value="DB_ERROR" style="rounded=0;whiteSpace=wrap;html=1;" parent="1" vertex="1">
          <mxGeometry x="449" y="20" width="120" height="60" as="geometry" />
        </mxCell>
        <mxCell id="nBId-_VAAAZWxmM32bPr-43" value="SUCCESS_RATE&lt;br&gt;_UNDER_THRESHOLD" style="rounded=0;whiteSpace=wrap;html=1;" parent="1" vertex="1">
          <mxGeometry x="434" y="150" width="150" height="60" as="geometry" />
        </mxCell>
        <mxCell id="nBId-_VAAAZWxmM32bPr-45" value="SUCCESS_RATE&lt;br&gt;_UNDER_THRESHOLD" style="rounded=0;whiteSpace=wrap;html=1;" parent="1" vertex="1">
          <mxGeometry x="620" y="420" width="150" height="60" as="geometry" />
        </mxCell>
        <mxCell id="nBId-_VAAAZWxmM32bPr-48" value="pod trỏ về node&lt;br&gt;thời điểm pod chết &amp;gt;= thời điểm node chết" style="text;html=1;strokeColor=none;fillColor=none;align=center;verticalAlign=middle;whiteSpace=wrap;rounded=0;" parent="1" vertex="1">
          <mxGeometry x="110" y="220" width="230" height="30" as="geometry" />
        </mxCell>
        <mxCell id="nBId-_VAAAZWxmM32bPr-50" value="" style="endArrow=classic;html=1;rounded=0;" parent="1" source="nBId-_VAAAZWxmM32bPr-4" target="nBId-_VAAAZWxmM32bPr-45" edge="1">
          <mxGeometry width="50" height="50" relative="1" as="geometry">
            <mxPoint x="690" y="510" as="sourcePoint" />
            <mxPoint x="740" y="460" as="targetPoint" />
          </mxGeometry>
        </mxCell>
        <mxCell id="nBId-_VAAAZWxmM32bPr-52" value="" style="endArrow=classic;html=1;rounded=0;" parent="1" source="nBId-_VAAAZWxmM32bPr-4" target="nBId-_VAAAZWxmM32bPr-1" edge="1">
          <mxGeometry width="50" height="50" relative="1" as="geometry">
            <mxPoint x="637" y="370" as="sourcePoint" />
            <mxPoint x="682" y="430" as="targetPoint" />
          </mxGeometry>
        </mxCell>
        <mxCell id="nBId-_VAAAZWxmM32bPr-54" value="Port thuộc node&lt;br&gt;thời điểm node chết &amp;gt;= thời điểm port chết" style="text;html=1;strokeColor=none;fillColor=none;align=center;verticalAlign=middle;whiteSpace=wrap;rounded=0;" parent="1" vertex="1">
          <mxGeometry x="100" y="90" width="250" height="30" as="geometry" />
        </mxCell>
        <mxCell id="nBId-_VAAAZWxmM32bPr-56" value="pod trỏ về node&lt;br&gt;thời điểm pod chậm &amp;gt;= thời điểm node hết disk space&lt;br&gt;eventType?" style="text;html=1;strokeColor=none;fillColor=none;align=center;verticalAlign=middle;whiteSpace=wrap;rounded=0;" parent="1" vertex="1">
          <mxGeometry x="670" y="370" width="310" height="30" as="geometry" />
        </mxCell>
        <mxCell id="nBId-_VAAAZWxmM32bPr-57" value="pod trỏ về node&lt;br&gt;thời điểm pod chết &amp;gt;= thời điểm node hết disk space&lt;br&gt;eventType?" style="text;html=1;strokeColor=none;fillColor=none;align=center;verticalAlign=middle;whiteSpace=wrap;rounded=0;" parent="1" vertex="1">
          <mxGeometry x="220" y="370" width="310" height="30" as="geometry" />
        </mxCell>
        <mxCell id="nBId-_VAAAZWxmM32bPr-58" value="pod gửi nhiều yêu cầu cho cùng một DB" style="text;html=1;strokeColor=none;fillColor=none;align=center;verticalAlign=middle;whiteSpace=wrap;rounded=0;" parent="1" vertex="1">
          <mxGeometry x="529" y="100" width="150" height="30" as="geometry" />
        </mxCell>
        <mxCell id="G0oVLhWJSXtOilYyA_jI-1" value="" style="edgeStyle=orthogonalEdgeStyle;rounded=0;orthogonalLoop=1;jettySize=auto;html=1;" edge="1" parent="1" source="G0oVLhWJSXtOilYyA_jI-2" target="G0oVLhWJSXtOilYyA_jI-3">
          <mxGeometry relative="1" as="geometry" />
        </mxCell>
        <mxCell id="G0oVLhWJSXtOilYyA_jI-2" value="NODE_DOWN" style="rounded=0;whiteSpace=wrap;html=1;" vertex="1" parent="1">
          <mxGeometry x="760" y="30" width="120" height="60" as="geometry" />
        </mxCell>
        <mxCell id="G0oVLhWJSXtOilYyA_jI-3" value="VNFC_DOWN&lt;br&gt;(pod down)" style="rounded=0;whiteSpace=wrap;html=1;" vertex="1" parent="1">
          <mxGeometry x="760" y="150" width="120" height="60" as="geometry" />
        </mxCell>
        <mxCell id="G0oVLhWJSXtOilYyA_jI-4" value="pod trỏ về node&lt;br&gt;thời điểm pod chết &amp;gt;= thời điểm node chết&lt;br&gt;eventType?" style="text;html=1;strokeColor=none;fillColor=none;align=center;verticalAlign=middle;whiteSpace=wrap;rounded=0;" vertex="1" parent="1">
          <mxGeometry x="835" y="110" width="230" height="30" as="geometry" />
        </mxCell>
      </root>
    </mxGraphModel>
  </diagram>
</mxfile>
